<svg width="53" height="53" viewBox="0 0 53 53" fill="none"
    xmlns="http://www.w3.org/2000/svg">
    <path d="M0 13.1944V-8.10623e-06H13.1944V5.27777H5.27778V13.1944H0ZM0 52.7778V39.5833H5.27778V47.5H13.1944V52.7778H0ZM39.5833 52.7778V47.5H47.5V39.5833H52.7778V52.7778H39.5833ZM47.5 13.1944V5.27777H39.5833V-8.10623e-06H52.7778V13.1944H47.5ZM40.9028 40.9028H44.8611V44.8611H40.9028V40.9028ZM40.9028 32.9861H44.8611V36.9444H40.9028V32.9861ZM36.9444 36.9444H40.9028V40.9028H36.9444V36.9444ZM32.9861 40.9028H36.9444V44.8611H32.9861V40.9028ZM29.0278 36.9444H32.9861V40.9028H29.0278V36.9444ZM36.9444 29.0278H40.9028V32.9861H36.9444V29.0278ZM32.9861 32.9861H36.9444V36.9444H32.9861V32.9861ZM29.0278 29.0278H32.9861V32.9861H29.0278V29.0278ZM44.8611 7.91666V23.75H29.0278V7.91666H44.8611ZM23.75 29.0278V44.8611H7.91667V29.0278H23.75ZM23.75 7.91666V23.75H7.91667V7.91666H23.75ZM19.7917 40.9028V32.9861H11.875V40.9028H19.7917ZM19.7917 19.7917V11.875H11.875V19.7917H19.7917ZM40.9028 19.7917V11.875H32.9861V19.7917H40.9028Z" fill="#2BADEE"/>
</svg>
